<svg xmlns="http://www.w3.org/2000/svg" xml:space="preserve" width="131" height="9" viewBox="0 0 131 9">
  <path d="M8.58 4.538q0 1.776-1.26 3.024-1.26 1.26-3.036 1.26T1.26 7.562Q0 6.314 0 4.538t1.26-3.024Q2.508.254 4.284.254t3.036 1.26q1.26 1.248 1.26 3.024zm-.492 0q0-1.572-1.116-2.676Q5.868.746 4.296.746q-1.56 0-2.676 1.116Q.504 2.966.504 4.538q0 1.56 1.116 2.676T4.296 8.33q1.572 0 2.676-1.116 1.116-1.116 1.116-2.676ZM6.312 6.182q-.276.54-.708.828-.492.336-1.212.336-1.068 0-1.704-.732-.66-.756-.66-2.088 0-1.2.648-1.968t1.692-.78h.036q1.26 0 1.836 1.116l-.468.456q-.456-.924-1.38-.924-.684 0-1.164.564-.504.6-.504 1.536 0 .984.456 1.572.456.588 1.224.588.432 0 .804-.228.42-.252.648-.756zm32.303-2.465q-.216.306-.468.612-.288.342-.612.666h1.63V4.14h.54v.855h2.646v1.071q0 1.134-.306 1.386-.162.135-.513.171-.153.018-.387.027h-.532l-.198-.567h.568q.594 0 .71-.135.118-.117.118-.72v-.711h-2.107v2.826h-.54V5.517h-1.88v2.196h-.54V5.715l-.289.234q-.153.135-.297.234-.342.27-.648.468l-.297-.522q.837-.477 1.593-1.152.666-.594 1.188-1.26H35.42v-.522h2.952q.171-.234.306-.504.1-.207.1-.234l.53.108-.35.63h4.13v.522z"/>
  <path d="M42.063 2.907q-.45-.261-1.116-.558-.577-.261-1.243-.522-.828.342-1.683.567-.963.252-1.98.378l-.297-.495q2.106-.234 3.34-.72-.424-.171-.937-.342-.414-.135-.864-.27-.315-.099-.62-.18l-.244-.063.378-.441.936.315q.486.162.936.324l1.017.369q.45-.171.855-.369.325-.153.604-.315.486-.279.486-.315l.522.315q0 .018-.531.306-.288.162-.594.315-.388.18-.775.342 1.225.396 2.206.918zm-8.359 4.698v-.594h-2.08v.594h-.548V1.251h3.177v6.354zm0-5.832h-2.08v4.716h2.08zm-3.402 4.068q-.423-.558-.73-1.053-.134-.216-.278-.468-.117-.207-.27-.504v4.527h-.54V3.897q-.468 1.413-1.692 2.79l-.28-.585q1.17-1.152 1.873-2.898H26.72V2.7h1.764V1.188q-.405.045-.837.072-.342.018-.693.018l-.19-.504q.442 0 .847-.018.486-.027.9-.081.477-.063.864-.162.423-.108.729-.252l.297.495q-.585.225-1.377.36V2.7h1.53v.504H29.06q.369.63.72 1.098.306.405.783.918zm-8.125 1.602V5.868h2.268v1.575zm1.728-1.17h-1.188v.765h1.188z"/>
  <path d="M25.589 7.281q0 .648-.18.846-.207.216-.91.216l-.234-.513q.577 0 .676-.072.108-.063.108-.441V5.283h-3.493v3.06h-.54V4.815h4.573zm-5.221-2.727q-.207-.405-.369-.819l-.297-.828v5.436h-.54V3.132q-.207.945-.44 1.638-.217.612-.559 1.332l-.36-.522q.342-.522.702-1.44.315-.819.558-1.728h-.936v-.504h1.035V.243h.54v1.665h.837v.504h-.765q.225.531.46.936.197.342.45.684zM11.68 7.29V5.553h3.709V7.29Zm3.169-1.251H12.22v.765h2.628z"/>
  <path d="m25.598 3.897-.1-.063q-.125-.072-.251-.162l-.333-.252q-.198-.153-.351-.315V4.23h-2.665V3.15q-.495.486-1.053.81l-.234-.45q1.143-.639 1.746-1.395h-1.602v-.468h1.827q.1-.126.18-.315.054-.117.126-.333l-.153.009q-.09 0-.17.009-.199.009-.37.009-.459.018-.828.018l-.189-.468h.306q.666 0 1.242-.027.522-.027.963-.072.765-.081 1.279-.225l.315.414-.558.117q-.298.054-.586.099-.369.054-.71.081-.01.036-.037.099l-.036.09q-.036.108-.072.18-.08.189-.153.315h2.647v.468H24.04q.234.243.577.513.279.216.612.432.126.09.26.171.109.072.217.135l.198.108zm-1.432-1.125q-.26-.234-.612-.657h-.684q-.198.315-.567.657Zm-.144.405h-1.584v.648h1.584zm52.465-.414q-.486-.018-.954-.027-.594-.009-1.161-.009l.063 3.159q.018.378.027.792v.198q0 .603-.261.846-.343.306-1.315.333l-.27-.684q.351.054.594.054.675 0 .675-.621l-.054-4.077h-.324q-.62 1.314-1.584 2.394-1.026 1.161-2.394 1.989l-.558-.405q.666-.342 1.287-.819.594-.45 1.107-.999 1-1.053 1.503-2.16l-2.043.018q-1.026.018-1.692.036v-.558q.801.018 1.72.027l2.97.009q-.01-.45-.028-.945-.009-.387-.036-.819l.595.009v.81q0 .504.009.945.369 0 .585-.009.315 0 .558-.009l.98-.018zM9.719 1.377V.864h3.564V.243h.54v.621h3.564v.513zm1.179 2.277V2.043h5.283v1.611zm4.743-1.125h-4.203v.639h4.203zm1.611 4.743q0 .603-.324.837-.333.225-1.188.225l-.243-.549h.198q.657 0 .855-.108.162-.099.162-.405V4.86h-6.31v3.483h-.54V4.338h7.39zm44.164-5.346q-.972 2.682-2.421 4.059-1.432 1.368-4.096 2.178l-.45-.522q2.646-.54 4.32-2.214-.458-.396-1.007-.774-.496-.342-1.045-.657l.396-.378q.558.324 1.018.621.567.369 1.044.738 1.026-1.206 1.539-2.844l-2.772.018-1.036.018q-.45.621-.963 1.161-.558.585-1.197 1.071l-.468-.414q.576-.378 1.071-.828.45-.414.828-.9.342-.423.64-.918.251-.423.485-.927l.595.153q-.316.585-.64 1.098l1.945.009q.333-.009.62-.009.676-.018 1.189-.045zm6.799-.486q-.414-.459-.954-.873l.324-.27q.567.432.954.846zm-.63.504q-.378-.432-.927-.9l.306-.27q.504.396.954.873zm-2.911.171q-.945-.594-1.908-.936l.342-.441q1.07.414 1.944.9zm-1.008 2.088q-.954-.567-1.872-.927l.279-.45q1.008.396 1.935.891zm4.964-.747q-1.135 1.872-2.665 2.889-1.602 1.071-4.158 1.557l-.27-.621q1.25-.135 2.33-.513 1.027-.369 1.873-.954.81-.558 1.45-1.305.602-.702 1.052-1.575zm57.389 1.917q-.324-.252-.64-.576-.26-.279-.494-.576v4.122h-.522V4.626q-.324.315-.765.63-.387.279-.846.54l-.261-.522q.369-.171.81-.459.495-.315.927-.693.495-.432.837-.873.396-.504.558-.981h-2.7v-.522h1.44V.243h.522v1.503h1.305v.504l-.063.162q-.09.207-.19.405-.143.288-.305.54-.207.315-.423.549.17.225.396.45.315.306.693.567zm-23.813 2.502h-.54l2.952-7.434h.54zm-1.806-.153q-.469-.567-1.324-1.269-.36-.297-.774-.612-.369-.27-.756-.54-.648.738-1.458 1.368-.855.657-1.917 1.215l-.522-.459q.972-.396 1.872-1.053.855-.612 1.584-1.404 1.44-1.557 1.98-3.231h-2.07q-.477 0-.891.009-.981.009-1.584.036v-.585q.603.018 1.206.027.747.009 1.404.009.684 0 1.188-.009.621-.009 1.053-.036l.432.324q-.414.999-.864 1.791-.495.882-1.08 1.611.756.486 1.54 1.08.836.648 1.502 1.269zM87.817 1.143q-.414-.459-.954-.873l.324-.27q.567.432.954.846zm-.945.207q-.378-.432-.927-.9l.306-.27q.504.396.954.873zm.45.576q-.972 2.682-2.42 4.059-1.432 1.368-4.096 2.178l-.45-.522q2.646-.54 4.32-2.214-.459-.396-1.008-.774-.495-.342-1.044-.657l.396-.378q.558.324 1.017.621.567.369 1.044.738 1.026-1.206 1.54-2.844l-2.773.018-1.035.018q-.45.621-.963 1.161-.558.585-1.197 1.071l-.468-.414q.576-.378 1.07-.828.45-.414.829-.9.342-.423.639-.918.252-.423.486-.927l.594.153q-.315.585-.639 1.098l1.944.009q.333-.009.621-.009.675-.018 1.188-.045ZM93.906.774q-1.062 1.116-2.358 2.097-.072 2.61 0 5.256l-.64.009q.019-.693.028-1.539.009-.756.009-1.638V4.14q0-.459-.01-.81-.792.567-1.674 1.098-.837.495-1.773.972l-.459-.495q1.647-.684 3.52-1.989.918-.639 1.629-1.269.756-.666 1.17-1.233zM77.505 4.568V3.542h.819v1.026zM53.411 7.722q-.468-.567-1.323-1.269-.36-.297-.774-.612-.369-.27-.756-.54-.648.738-1.458 1.368-.855.657-1.917 1.215l-.522-.459q.972-.396 1.872-1.053.855-.612 1.584-1.404 1.44-1.557 1.98-3.231h-2.07q-.477 0-.891.009-.981.009-1.584.036v-.585q.603.018 1.206.027.747.009 1.404.009.684 0 1.188-.009.621-.009 1.053-.036l.432.324q-.414.999-.864 1.791-.495.882-1.08 1.611.756.486 1.54 1.08.836.648 1.502 1.269zm73.026.288v-.54h2.106V3.645h-1.773v-.54h1.773V.243h.558v2.862h1.683v.54h-1.683V7.47H131v.54zm-4.644.324q-.612-.126-1.07-.288-.523-.189-.955-.45-.945-.594-1.683-1.764-.495.972-1.35 1.557-.864.594-2.358.945l-.351-.54q1.45-.243 2.394-.846.855-.549 1.206-1.314h-3.555v-.54h1.125V2.907h2.592v-.765h.558v.765h2.601v2.187h1.071v.54h-3.492q.55.9 1.368 1.404.864.531 2.196.747zm-1.404-4.905h-2.043v1.305q0 .153-.027.36h2.07zm-2.6 0h-2.035v1.665h1.998q.036-.18.036-.36z"/>
  <path d="M119.75 1.53v.846h-.54V1.53h-2.34v.846h-.54V1.53h-2.16v-.522h2.16V.243h.54v.765h2.34V.243h.54v.765h2.16v.522Zm-6.866 6.579q-1.89-.675-3.348-2.106h-.126v2.34h-.531v-2.34h-.126q-.27.324-.55.576-.314.297-.683.54-.829.549-2.125.99l-.297-.513q.585-.153 1.098-.36.469-.189.865-.414.35-.198.648-.414.252-.198.459-.405h-2.863v-.495h3.574v-.639h-2.494V2.232q-.477.504-1.035.891l-.243-.486q.46-.297.882-.738.333-.36.621-.792.217-.306.379-.621.126-.234.126-.252l.495.153q0 .018-.081.18-.045.108-.1.216-.071.135-.152.27h2.016q.225-.279.378-.576l.108-.243.495.153q0 .018-.081.198l-.117.207q-.072.135-.153.261h2.655v.468h-2.844v.684h2.502v.405h-2.502v.711h2.502v.405h-2.502v.693h2.916v.45h-3.24v.639h3.564v.495h-2.8q.613.549 1.27.909.747.405 1.746.684zm-3.69-6.588h-2.268v.684h2.268zm0 1.089h-2.268v.711h2.268zm0 1.116h-2.268v.693h2.268z"/>
</svg>