<svg xmlns="http://www.w3.org/2000/svg" xmlns:xlink="http://www.w3.org/1999/xlink" width="80" height="80">
   <defs>
      <radialGradient xlink:href="#a" id="f" cx="306.6" cy="555.37" r="6.01" fx="306.6" fy="555.37" gradientTransform="matrix(.6 .5 -.91 1.1 337.2 -739.7)" gradientUnits="userSpaceOnUse" />
      <radialGradient xlink:href="#b" id="e" cx="264.54" cy="641.32" r="35.22" fx="264.54" fy="641.32" gradientTransform="matrix(.76 .86 -.77 .71 319.93 -648.36)" gradientUnits="userSpaceOnUse" />
      <radialGradient xlink:href="#c" id="d" cx="328.05" cy="573.83" r="39.79" fx="328.05" fy="573.83" gradientTransform="translate(-289.8 -536.9)" gradientUnits="userSpaceOnUse" />
      <linearGradient id="c">
         <stop offset="0" stop-color="#f3c87d" stop-opacity=".76" />
         <stop offset=".88" stop-color="#d69c45" />
         <stop offset="1" stop-color="#e5ff6a" />
      </linearGradient>
      <linearGradient id="b">
         <stop offset="0" stop-color="#a5864d" />
         <stop offset=".79" stop-color="#332815" />
         <stop offset="1" stop-color="#1a1911" />
      </linearGradient>
      <linearGradient id="a">
         <stop offset="0" stop-color="#f0bf7a" stop-opacity=".91" />
         <stop offset=".64" stop-color="#f0bf7a" stop-opacity=".45" />
         <stop offset="1" stop-color="#f0bf7a" stop-opacity="0" />
      </linearGradient>
   </defs>
   <path fill="url(#d)" d="M40 0C18.03 0 0 17.6 0 40s18.03 40 40 40 40-17.6 40-40S61.97 0 40 0Z" />
   <path fill="url(#e)" d="M40 4.5A35.42 35.42 0 0 0 4.5 40c0 19.9 16.05 36.57 35.5 36.57S75.5 59.89 75.5 40C75.5 20.1 59.45 4.5 40 4.5Z" />
   <path fill="url(#f)" d="M23.6 14.72c-6.3-1.47-14.76 7.17-10.63 13.64 6.56 3.43 14.32-7.35 10.63-13.64Z" />
   <path fill="#fff" d="M39.46 20.57c-1.13.04-2.3.61-2.4 1.6-.12 2.83 0 12.46 0 15.76-4.04-.16-19.23.21-20.13.54-1.91.7-1.78 3.2-.26 3.86 2.1.9 11.93.3 14.53.3-.01 8.98-12.97 20.77-19.65 20.42-1.95-.1-1.26 1.93-1.1 3.02.3 2.07 4.65 2.28 5.83 1.79 9.85-5.16 15.69-13.9 19.23-24.34.5-1.62.98-1.48 2.27-1.35h3.83c.63 5.86-.66 23.48.92 24 6.19 1.07 19.21 3.28 25.15 1.96a7.83 7.83 0 0 0 1.83-7.4c-7.91 2.07-8.95 1.17-23.66 1.43-.6-5.12-.02-13.83 0-19.99 5.35 0 10.17-.13 15.65-.08 1.56.02 2.75-3.87.49-3.89-8.4-.17-13.28.11-20.18-.26-.1-5.29.1-10.51-.09-15.8-.01-1.13-1.12-1.62-2.26-1.57z" />
   <path fill="#fff" d="M49.5 24.92c-.82.02-1.29 1.1-.8 1.47 2.34 1.77 3.3 5.74 5.4 5.87a6.1 6.1 0 0 0 5.84-3.18c.45-.94-8.1-3.43-10.06-4.1a1.06 1.06 0 0 0-.37-.06zM29.32 25c-.3 0-.69.12-1.08.33-3.06 1.59-5.65 1.51-9.21 1.28-1.83 3.8 2.86 8.5 5.08 6.73 2.68-2.16 5.97-4.22 5.9-7.65-.02-.5-.3-.7-.69-.7zm-2.7-17.32c-1.12.67-2.45.72-3.71.87-.29.07-.64-.04-.88.15-.1.36.07.75.08 1.12.01.16.05.53.29.37.25-.27.68-.17 1.01-.26.51-.07 1.02-.17 1.52-.29-1.38 1.67-2.28 3.9-1.96 6.1.15 1.13.9 2.14 1.9 2.62a5.8 5.8 0 0 0 3.67.31 3.47 3.47 0 0 0 2.6-2.18c.42-1.02.29-2.15.25-3.23-.03-.43-.1-.92-.17-1.32a5.3 5.3 0 0 0 2.22 1.75c.24-.04.23-.4.34-.57.09-.3.27-.57.29-.87a6.98 6.98 0 0 1-3.48-3.5c-.2-.13-.43.16-.64.2-.23.14-.5.22-.7.4.03.37.28.72.35 1.1.39 1.48.46 3.03.38 4.55-.03 1.1-.85 2.14-1.94 2.25-1 .15-2.17.16-2.96-.59-.83-.77-.8-2.05-.59-3.07a9.24 9.24 0 0 1 2.47-4.28c.2-.22.46-.4.67-.58.03-.28-.3-.43-.44-.63-.19-.12-.34-.42-.57-.42zm11.86-.43-.05.02h-.02c-.21.6-.2 1.26-.33 1.87-.09.44-.11.94-.25 1.35-.8.13-1.65.12-2.44.31-.17.18 0 .48-.03.7.07.25-.09.67.16.8.67-.14 1.36-.23 2.03-.32-.5 2.12-1.3 4.16-2.37 6.05.01.24.36.27.52.4.27.1.53.32.82.32.35-.54.58-1.18.87-1.76a28.5 28.5 0 0 0 1.6-4.86c.05-.15.05-.42.28-.37.58 0 1.19-.07 1.76.04.6.26.83 1 .8 1.62a6.81 6.81 0 0 1-.58 3.4c-.28.51-.95.58-1.43.36-.46-.16-.82-.53-1.27-.71-.23.09-.19.43-.32.6-.04.23-.33.48-.17.69.77.58 1.66 1.22 2.68 1.09.95-.05 1.7-.81 2.03-1.68a10 10 0 0 0 .52-4.48c-.16-.93-.65-1.91-1.59-2.22a5.26 5.26 0 0 0-2.32-.11c.15-.82.3-1.65.5-2.45.16-.04.52-.23.3-.42-.55-.17-1.14-.16-1.7-.24zm5.48 1.45-.05.01c-.3.27-.73.42-.97.75-.06.32.36.45.51.66a7.68 7.68 0 0 1 2.18 3.85c.13.23.42-.06.6-.07.3-.14.67-.21.94-.4a8.36 8.36 0 0 0-2.19-3.95c-.32-.31-.64-.65-1.02-.86zm6.74-.91c-.2.1-.12.45-.2.64-.3 2.06-.52 4.21.03 6.25.2.24.57 0 .84 0 .2-.08.55.02.65-.21-.12-.82.43-1.51.79-2.2.14-.3.42-.56.49-.89a3.64 3.64 0 0 0-.7-.9c-.28.23-.4.64-.6.96-.1.19-.25.52-.34.64.05-1.2.17-2.4.44-3.56.06-.18.45-.2.31-.44-.53-.18-1.12-.24-1.68-.3l-.02.01zm5.43-.43c-.24.07-.07.41-.09.6.2 1.8.29 3.61.2 5.42a5.33 5.33 0 0 1-2.7 3.58c-.5.3-1.07.56-1.59.82 0 .28.3.46.45.68.2.17.34.5.62.5 1.42-.64 2.85-1.44 3.78-2.76a6.14 6.14 0 0 0 1.08-3.88c.02-1.46-.1-2.92-.15-4.38.05-.13.33-.21.25-.42-.22-.16-.55-.07-.81-.12-.35-.02-.7-.04-1.04-.04z" />
</svg>