<svg xmlns="http://www.w3.org/2000/svg" xml:space="preserve" width="259" height="20" viewBox="0 0 259 20">
  <path fill="#fff" d="M248.874 4.438q0 2.47-.49 5.132-.55 2.885-1.49 4.688-.858 1.608-1.409 2.19-.734.778-1 .778-.306 0-1.062-.75-.715-.665-.715-.997 0-.334.879-.833 2.592-1.415 3.633-5.298.45-1.748.593-5.187.081-.999.429-.999.632 0 .632 1.277zM259 9.21q0 .332-1.51 2.635-1.165 1.664-2.716 3.384-2.021 2.219-3.042 2.219-.817 0-.817-1.415 0-1.053.042-3.134.06-2.053.06-3.052 0-1.165-.08-3.384-.103-2.274-.103-3.384 0-1.248.898-1.248.286 0 .429.443.183.389.183.777l-.08 11.79q.428 0 2.143-1.526 1.47-1.332 3.062-3.468.98-1.36 1.082-1.36.449 0 .449.722zm-16.58.526q0 .417-.837 1.36-.837.943-1.204.943-.43 0-1.082-.473-2.083-1.441-5.778-1.441-3.144 0-5.45 1.082-.858.388-1.042.388-.245 0-.49-.305-.224-.305-.224-.61 0-.639.367-1.082.51-.555 3.286-.833 2.022-.194 3.594-.194 2.225 0 4.9.583 1.795.416 2.654.416.163 0 .51-.111.367-.166.53-.166.266 0 .266.443zm-18.499 5.66q0 .665-.572 1.608-.571.915-1.082.915-.183 0-1.081-.61-1.675-1.082-4.839-1.082-1.531 0-3.083.804-.53.305-1.531.888-.612-.083-.612-.888 0-.693.408-.97.653-.472 2.593-.805 1.612-.277 2.735-.277l-.06-3.301q0-2.136-.021-3.245h-.225q-1.103 0-1.715.167-1.103.249-1.163.249-.572 0-.572-.721 0-.86.837-.86.959 0 2.899-.112 1.94-.082 2.94-.082 1.53 0 1.694.194-.041.582-.327 1.053-.286.361-.734.361-.369 0-1.184-.083-.757-.138-1.164-.138v6.545q.693.056 2.041.112.224.027 1.265.11.756.056 1.267.056.123 0 .429-.055.285-.028.449-.028.408 0 .408.194zM206.93 4.825q0 3.274-1.47 6.464-1.307 2.801-3.491 4.826-2.919 2.802-4.635 2.802-.407 0-1.06-.694-.654-.693-.654-1.22 0-.305 1.49-.638 1.858-.388 3.92-1.86 1.756-1.302 3.103-3.494 1.551-2.58 1.551-4.937 0-.361-1.286-.472-1.123-.138-3.389-.138-2.041 0-3.695.305-1.02.221-1.02.443 0 3.717-.734 3.717-.43 0-.43-.416 0-1.72-.143-2.829-.183-1.636-.183-1.914 0-.832.571-.832.184 0 .612.222.367.25.592.25.49 0 1.593-.222.633-.084 2.042-.084-.062-1.941-.062-3.106 0-.694.736-.694.652 0 .652.694 0 .61-.04 1.525-.062 1.304-.062 1.525 4.268.112 4.022.112.204 0 .49-.139.326-.138.51-.138.47 0 .47.942zm2.45-1.552q0 .305-.429.692-.408.444-.632.444-.409 0-.98-1.442-.614-1.414-.614-2.025 0-.305.143-.305t.348.277q1 1.581 1.735 1.914.429.195.429.445zm2.612-1.249q-.04.194-.449.721-.387.528-.55.528-.47-.14-1.185-1.333-.694-1.192-.694-1.747 0-.194.102-.194.061 0 .735.583.674.637.777.72.306.195.877.473.327.027.387.249zm-21.282 7.74q0 1.11-.633 1.914-.654.75-1.49.75-.878 0-1.43-.75-.571-.722-.571-1.914 0-1.193.551-1.859.551-.637 1.45-.637.836 0 1.47.61.653.748.653 1.886zm-7.842-.028q0 .417-.837 1.36-.837.943-1.205.943-.429 0-1.081-.473-2.083-1.441-5.778-1.441-3.144 0-5.45 1.082-.858.388-1.042.388-.245 0-.49-.305-.224-.305-.224-.61 0-.639.367-1.082.51-.555 3.286-.833 2.022-.194 3.594-.194 2.225 0 4.9.583 1.795.416 2.654.416.163 0 .51-.111.367-.166.53-.166.266 0 .266.443zM164.34 3.55q0 .889-1.388 3.995-1.265 2.774-2 3.966 1.184 1.22 2.143 1.665.224.138.55.443-.04.389-.754 1.194-.715.748-.98.748-.327 0-.98-1.165-.49-.804-.939-1.608-1.388 1.83-3.246 3.633-2.532 2.497-3.593 2.497-.449 0-1.103-.583-.632-.582-.632-1.137 0-.333.817-.583 3.633-1.165 6.818-5.048-.633-.75-1.307-1.442-1.04-1.194-1.04-1.415 0-.333.387-.333.286 0 1.388.888.714.638 1.388 1.22.715-.999 1.654-2.885 1.184-2.191 1.347-3.05-.265-.25-2.429-.25-1.103 0-2.572.166-.776 1.332-1.838 2.718-1.388 1.831-2.061 1.831-.388 0-.96-.527-.531-.527-.531-.97 0-.112.879-.64 1.55-.83 2.755-2.134.96-1.11 2.124-3.663.347-.665.612-.665.47 0 .47.555 0 .388-.735 2.053 5.552-.168 5.226-.168.531 0 .531.694zm-14.253 11.845q-.122.499-.898 1.387-.776.86-1.205.86-.367 0-1.612-2.053-1.246-2.08-3.512-4.16-2.491 3.384-4.532 4.826-1.695 1.193-2.245 1.193-.409 0-1-.722-.532-.72-.532-1.247 0-.305.572-.473 5.308-1.275 9.043-8.043.47-.833.715-1.304.51-1.027.572-1.332-.123-.083-1.593-.083-3.103 0-4.899.527-.92.278-1.286.278-.47 0-.47-.888 0-.582.49-.943.49-.36 3.45-.36h2.858q.858 0 1.348.11.224-.11.755-.11.715 0 .715.692 0 .75-1.368 3.44-1.082 2.164-1.899 3.44l3.45 2.995q1.328 1.165 2.083 1.388.266.083.572.137.388.195.428.445zM133.052 5.16q0 .859-3.308 4.077-2.796 2.718-4.246 3.883 2.062 1.665 3.531 2.386.695.333.695.527 0 .388-.838 1.332-.775.97-1.123.97-.264 0-1.286-1.497-.959-1.582-2.04-2.802-1.328-1.47-2.47-2.302-.736-.5-.736-.915 0-.584.572-.584.286 0 2.899 2.248 1.572-1.443 4.205-4.688.898-1.026 1.899-2.275-.143-.167-3.042-.167-3.123 0-5.594.445-1.592.305-3.51.748-.675 0-.675-1.054 0-.443.348-.748.428-.444 3.51-.639 2.185-.166 3.798-.166 1.082 0 3.245.055 2.185.056 3.267.056.898 0 .898 1.11zm-15.786 6.49q0 .472-.98 1.443-1 .943-1.388.943-.347 0-1.042-1.22-1.816-2.941-4.47-4.55 0 1.609.04 4.91.083 3.245.083 4.938 0 1.22-.777 1.22-.652 0-.652-1.415 0-1.248.04-3.744.062-2.552.062-3.801V5.187q0-.582-.062-1.664-.04-1.165-.04-1.748 0-1.026.755-1.026.714 0 .714 1.026 0 .86-.06 2.525-.083 1.692-.083 2.524 2.063 1.22 4.35 2.94 1.938 1.36 3.04 1.581.47.055.47.305zm-15.497-8.1q0 .944-.919 3.967-2 6.463-6.35 9.958-2.04 1.665-2.817 1.665-.408 0-1.143-.721-.775-.694-.775-1.193 0-.277 1-.638 1.592-.638 2.817-1.36 1.796-1.026 3.532-3.19 1.736-2.134 2.572-4.465.857-2.358.94-3.163-.144-.138-1.94-.138h-1.408q-1.98 0-3.675.333-2.063.471-2.369.471-.49 0-.49-.915 0-.582.225-.887.449-.528 4.063-.528.857 0 2.552.055 1.735.056 2.592.056.184 0 .55-.056.389-.055.594-.055.449 0 .449.804zM85.385 6.713q0 1.36-1.041 4.327-.817 2.246-2.389 4.133-1.572 1.886-3.327 2.912-1.654.944-2.246.944-.47 0-1.246-.86-.755-.888-.755-1.443 0-.25 1.838-.555 2.123-.332 3.899-1.636 1.857-1.415 2.96-3.717 1.041-2.08 1.062-3.245-.245-.194-2.49-.194-2.736 0-4.308.387-.572.14-1.103.305-.715.25-1.123.25-.449 0-.449-.831 0-.86.572-1.194.612-.332 4.776-.332.654 0 1.94.027 1.307.056 1.96.056.163 0 .409-.083.244-.138.407-.138.654 0 .654.887zm-1.041-4.938q0 1.276-.654 1.276-.08 0-1.49-.277-.408-.083-2.082-.083-1.389 0-2.308.11-1.142.168-1.163.168-.695 0-.695-.694t.47-.915q.572-.305 3.757-.305 2.001 0 2.307.026 1.858.14 1.858.694zm-12.66 1.859q0 .777-1.327 3.827-2.715 6.242-6.737 9.57-2.409 1.998-3.164 1.998-.429 0-1.041-.583-.674-.582-.674-1.137 0-.333.817-.583 1.04-.36 2.756-1.47 4.205-2.58 6.757-7.96.53-1.027 1.081-2.58-.428-.277-2.388-.277-.938 0-2.838.166-.674 1.22-1.776 2.69-1.388 1.859-2.02 1.859-.388 0-.92-.528-.591-.582-.591-.97 0-.167.796-.666 1.613-.971 2.716-2.219.612-.666 1.163-1.747.51-.944 1.02-1.859.368-.749.695-.749.449 0 .449.527 0 .388-.797 2.22h3.042q1.226 0 1.981-.168.244-.027.429-.027.571 0 .571.666zM56.838 8.626q0 .583-.613 1.61-.531 1.054-.959 1.054-.143 0-.92-.527-1.612-1.11-4.653-1.193-.307 5.492-2.656 8.265-1.285 1.499-2.04 1.499-.347 0-1.021-.61-.673-.61-.673-.999t.816-.694q.653-.249 1.776-1.053 1.164-.86 1.919-2.802.613-1.72.735-3.606-3.553.055-5.635 1.054-1.286.582-1.183.582-.531 0-.531-.97 0-.694.367-1.082.878-.86 7.003-.999-.021-1.498-.021-3.745-.49.222-1.633.583-1.184.305-1.695.305-.49 0-1.102-.666-.55-.61-.55-1.276 0-.221 1.1-.25 1.144-.055 3.39-.305 2-.36 3.327-1.22.94-.638 1.123-.638.409 0 .409.527 0 .472-1.368 1.443-.98.637-1.858.998 0 2.635.021 4.217 1.122.027 3.348.167.285.026 1.49.11.918.083 1.47.083.408 0 .653-.11.164 0 .164.248zM30.76 10.707q0 .417-.266.417-.285 0-1.122-1.471-.816-1.498-.816-1.998 0-.748.734-.748.367 0 .94 1.58.53 1.555.53 2.22zm7.901-3.328q0 .61-.551 2.551-1.286 4.55-5.002 7.99-1.776 1.636-2.592 1.636-.368 0-.92-.416-.53-.472-.53-.915 0-.305 1.184-.75 1.695-.61 3.287-1.941 1.837-1.581 2.756-3.551.388-.915.796-2.33.266-1.22.592-2.44.102-.5.49-.5.49 0 .49.666zm-4.654 2.856q0 .5-.205.5-.245 0-.776-1.525-.55-1.499-.55-1.998 0-.832.714-.832.816 0 .816 3.855zm-8.89-4.271q0 .582-1.43 2.413-1.224 1.47-1.96 2.108 0 1.36.062 3.995.102 2.635.102 3.939 0 1.581-.408 1.581-.694 0-.694-1.22v-7.574q-3.001 2.025-4.757 2.025-.51 0-.98-.527-.429-.554-.429-1.248 0-.332.55-.36 1.104-.056 1.594-.111.898-.139 1.633-.334 1.388-.498 2.654-1.414 2.041-1.525 2.858-3.107.429-.832.735-.832.47 0 .47.666zm-13.01-1.138q0 3.274-1.45 6.464-1.349 2.8-3.493 4.826-2.96 2.802-4.654 2.802-.428 0-1.062-.694-.652-.693-.652-1.22 0-.305 1.49-.638 1.878-.388 3.898-1.86 1.757-1.302 3.124-3.494 1.574-2.58 1.574-4.937 0-.361-1.286-.472-1.123-.138-3.43-.138-2 0-3.695.305-1 .221-1 .443 0 3.717-.756 3.717-.428 0-.428-.416 0-1.72-.103-2.829Q0 5.049 0 4.771q0-.832.55-.832.185 0 .573.222.429.25.632.25.47 0 1.572-.222.634-.084 2.083-.084Q5.308 2.164 5.308 1q0-.694.776-.694.653 0 .653.694 0 .61-.061 1.525-.062 1.304-.062 1.525 4.287.112 4.023.112.163 0 .51-.139.285-.138.469-.138.49 0 .49.942z"/>
</svg>