<svg xmlns="http://www.w3.org/2000/svg" xmlns:xlink="http://www.w3.org/1999/xlink" width="76.852" height="77.152"><defs><linearGradient id="b"><stop offset="0" stop-color="#9f863f"/><stop offset="1" stop-color="#332815"/><stop offset="1" stop-color="#e9e560"/></linearGradient><linearGradient id="a"><stop offset="0" stop-color="#f0bf7a" stop-opacity=".911"/><stop offset=".5" stop-color="#f0bf7a" stop-opacity=".455"/><stop offset="1" stop-color="#f0bf7a" stop-opacity="0"/></linearGradient><linearGradient id="c"><stop offset="0" stop-color="red"/><stop offset="1" stop-color="#f60"/></linearGradient><linearGradient id="d"><stop offset="0" stop-color="#f3c87d" stop-opacity=".759"/><stop offset=".914" stop-color="#d69c45"/><stop offset="1" stop-color="#e5ff6a"/></linearGradient><linearGradient id="e"><stop offset="0" stop-color="#a5864d"/><stop offset=".786" stop-color="#332815"/><stop offset="1" stop-color="#1a1911"/></linearGradient><linearGradient id="f"><stop offset="0" stop-color="#f0bf7a" stop-opacity=".911"/><stop offset=".642" stop-color="#f0bf7a" stop-opacity=".455"/><stop offset="1" stop-color="#f0bf7a" stop-opacity="0"/></linearGradient><radialGradient xlink:href="#d" id="g" cx="327.813" cy="574.355" fx="327.813" fy="574.355" r="39.672" gradientTransform="matrix(1 0 0 1.02323 .005 -13.315)" gradientUnits="userSpaceOnUse"/><radialGradient xlink:href="#e" id="h" cx="316.585" cy="568.734" fx="316.585" fy="568.734" r="35.221" gradientTransform="matrix(.7474 .82267 -.75831 .68893 512.806 -84.959)" gradientUnits="userSpaceOnUse"/><radialGradient xlink:href="#f" id="i" gradientUnits="userSpaceOnUse" gradientTransform="matrix(.60886 .50796 -.90996 1.09071 625.314 -205.962)" cx="306.6" cy="555.367" fx="306.6" fy="555.367" r="6.005"/></defs><path d="M325.13 533.794c-12.046.128-23.831 6.478-30.107 16.838-9.983 15.476-9.22 37.58 3.108 51.559 7.91 8.941 20.141 13.526 31.996 12.685 12.968-.255 25.579-7.742 31.67-19.258 5.398-9.438 6.922-20.84 4.725-31.458-2.298-13.991-13.544-26.226-27.386-29.442-4.606-.847-9.333-.962-14.006-.924z" fill="url(#g)" transform="matrix(.96767 0 0 .94944 -278.803 -506.754)"/><path d="M325.432 538.347c-10.695.114-21.158 5.752-26.73 14.95-8.863 13.739-8.186 33.363 2.76 45.774 7.023 7.938 17.881 12.008 28.406 11.262 11.513-.226 22.709-6.874 28.116-17.097 4.793-8.38 6.146-18.503 4.196-27.93-2.04-12.42-12.025-23.283-24.314-26.138-4.09-.752-8.286-.854-12.434-.82z" fill="url(#h)" transform="matrix(.96767 0 0 .94944 -278.803 -506.754)"/><path d="M311.72 548.459c-6.298-1.469-14.764 7.172-10.63 13.64 6.56 3.43 14.323-7.353 10.63-13.64z" fill="url(#i)" transform="matrix(.96767 0 0 .94944 -278.803 -506.754)"/><g fill="#fff"><path d="M35.855 21.046c-.109 2.693.001 11.833.006 14.963-3.914-.144-18.607.206-19.479.52-1.852.667-1.73 3.03-.252 3.659 2.02.861 11.538.28 14.057.278-.004 3.821-2.054 6.705-4.236 9.912-2.198 3.026-5.869 5.863-8.51 7.417-2.139 1.258-3.902 2.192-6.264 2.07-1.888-.097-1.22 1.83-1.072 2.86.285 1.97 4.505 2.174 5.642 1.705 3.754-2.306 6.326-3.623 9.079-6.393 2.082-2.097 4.444-6.272 5.327-7.199 1.246-1.307 3.77-8.124 4.201-9.515.479-1.544.947-1.408 2.195-1.283h3.715c.606 5.56-.645 22.296.889 22.776 5.986 1.02 18.587 3.123 24.334 1.866 1.48-1.351 2.59-4.433 1.767-7.018-7.65 1.96-8.654 1.11-22.894 1.35-.58-4.861-.015-13.13 0-18.974 5.175 0 9.846-.129 15.146-.075 1.507.016 2.663-3.674.472-3.695-8.127-.158-12.847.104-19.524-.248-.092-5.02.105-9.982-.086-14.994-.025-2.156-4.299-1.856-4.513.018z"/><path d="M47.33 25.052c2.256 1.683 3.185 5.45 5.216 5.581 2.72.176 4.874-1.412 5.657-3.026.432-.889-7.834-3.252-9.733-3.888-1.014-.34-1.685.927-1.14 1.333zM27.527 24.048c-2.963 1.51-5.469 1.439-8.91 1.216-1.609 3.284 1.782 5.606 2.018 6.113.408.88 2.193.827 2.895.273 2.598-2.048 5.781-4 5.702-7.261-.02-.83-.836-.784-1.705-.341z"/></g><text style="line-height:1.25" x="331.725" y="545.47" transform="translate(-278.803 -506.754) scale(.95851)" font-weight="400" font-size="41.731" font-family="sans-serif" letter-spacing="0" word-spacing="0" fill="#fff" stroke-width="1.043"><tspan x="331.725" y="545.47" style="-inkscape-font-specification:'FOT-Rodin Pro Bold Extra-Expanded';text-align:center" font-weight="700" font-stretch="extra-expanded" font-size="13.91" font-family="FOT-Rodin Pro" text-anchor="middle">ひかり</tspan></text></svg>